<?xml version="1.0" encoding="utf-8"?><svg viewBox="0 0 191 31" xmlns="http://www.w3.org/2000/svg" xmlns:xlink="http://www.w3.org/1999/xlink"><style>:root>svg{display:none}:root>svg:target{display:block}</style><svg viewBox="0 0 20 18" id="burger" xmlns="http://www.w3.org/2000/svg"><path d="M0 0h20v2H0zm0 8h20v2H0zm0 8h10v2H0z"/></svg><svg viewBox="0 0 12 14" id="calendar" xmlns="http://www.w3.org/2000/svg"><path d="M10.667 1.75h-.584V.583H8.917V1.75H3.083V.583H1.917V1.75h-.584A1.17 1.17 0 00.167 2.917v9.333a1.17 1.17 0 001.166 1.167h9.334a1.17 1.17 0 001.166-1.167V2.917a1.17 1.17 0 00-1.166-1.167zm0 10.5H1.333V4.667h9.334v7.583z"/></svg><svg viewBox="0 0 12 14" id="calendar-light" xmlns="http://www.w3.org/2000/svg"><path d="M10.667 1.75h-.584V.583H8.917V1.75H3.083V.583H1.917V1.75h-.584A1.17 1.17 0 00.167 2.917v9.333a1.17 1.17 0 001.166 1.167h9.334a1.17 1.17 0 001.166-1.167V2.917a1.17 1.17 0 00-1.166-1.167zm0 10.5H1.333V4.667h9.334v7.583z"/></svg><svg viewBox="0 0 20 20" id="contacts-btn-close" xmlns="http://www.w3.org/2000/svg"><circle cx="10" cy="10" r="10"/><path d="M6.207 5.5l8.485 8.485-.707.707L5.5 6.207z"/><path d="M5.59 13.985L14.077 5.5l.707.707-8.485 8.486z"/></svg><svg viewBox="0 0 191 31" id="logo" xmlns="http://www.w3.org/2000/svg"><path d="M43 25V4h5.55v7.8h8.1V4h5.55v21h-5.55v-8.1h-8.1V25H43zM65.486 5.2c0-.72.27-1.32.81-1.8.54-.5 1.22-.75 2.04-.75.82 0 1.5.25 2.04.75.54.48.81 1.08.81 1.8 0 .7-.27 1.3-.81 1.8s-1.22.75-2.04.75c-.82 0-1.5-.25-2.04-.75s-.81-1.1-.81-1.8zm.3 19.8V9.4h5.1V25h-5.1zm9.668-2.37c-1.34-1.48-2.01-3.39-2.01-5.73 0-2.34.67-4.25 2.01-5.73 1.34-1.48 2.97-2.22 4.89-2.22 1.38 0 2.57.4 3.57 1.2.46.36.82.76 1.08 1.2h.3V9.4h5.1v21.3h-14.85v-4.05h9.75V22.6h-.3c-.28.44-.64.82-1.08 1.14-.98.74-2.17 1.11-3.57 1.11-1.92 0-3.55-.74-4.89-2.22zm4.14-8.37c-.6.64-.9 1.52-.9 2.64s.3 2 .9 2.64c.6.64 1.4.96 2.4.96s1.8-.32 2.4-.96c.6-.64.9-1.52.9-2.64s-.3-2-.9-2.64c-.6-.64-1.4-.96-2.4-.96s-1.8.32-2.4.96zM93.38 25V4h5.1v7.5h.3c.28-.48.64-.9 1.08-1.26 1.02-.86 2.21-1.29 3.57-1.29 1.84 0 3.27.56 4.29 1.68 1.04 1.1 1.56 2.69 1.56 4.77V25h-5.1v-8.85c0-.9-.24-1.6-.72-2.1s-1.14-.75-1.98-.75c-.86 0-1.58.32-2.16.96-.56.62-.84 1.45-.84 2.49V25h-5.1zm27.158 5.7V9.4h5.1v2.1h.3c.28-.46.66-.88 1.14-1.26 1.1-.86 2.27-1.29 3.51-1.29 1.92 0 3.55.76 4.89 2.28 1.34 1.5 2.01 3.49 2.01 5.97 0 2.48-.67 4.48-2.01 6-1.34 1.5-2.97 2.25-4.89 2.25-1.26 0-2.43-.42-3.51-1.26a4.61 4.61 0 01-1.14-1.29h-.3v7.8h-5.1zm6-16.38c-.6.68-.9 1.64-.9 2.88s.3 2.2.9 2.88c.6.68 1.4 1.02 2.4 1.02s1.8-.34 2.4-1.02c.6-.68.9-1.64.9-2.88s-.3-2.2-.9-2.88c-.6-.68-1.4-1.02-2.4-1.02s-1.8.34-2.4 1.02zm14.746 8.88c-1.34-1.52-2.01-3.52-2.01-6s.67-4.47 2.01-5.97c1.34-1.52 2.97-2.28 4.89-2.28 1.24 0 2.41.43 3.51 1.29.46.38.84.8 1.14 1.26h.3V9.4h5.1V25h-5.1v-2.1h-.3c-.28.48-.66.91-1.14 1.29-1.08.84-2.25 1.26-3.51 1.26-1.92 0-3.55-.75-4.89-2.25zm4.14-8.88c-.6.68-.9 1.64-.9 2.88s.3 2.2.9 2.88c.6.68 1.4 1.02 2.4 1.02s1.8-.34 2.4-1.02c.6-.68.9-1.64.9-2.88s-.3-2.2-.9-2.88c-.6-.68-1.4-1.02-2.4-1.02s-1.8.34-2.4 1.02zm12.886 5.58h5.1c.08.3.25.58.51.84.54.54 1.32.81 2.34.81 1.4 0 2.1-.35 2.1-1.05 0-.32-.2-.57-.6-.75-.4-.2-1-.4-1.8-.6-.66-.16-1.09-.26-1.29-.3-.2-.04-.62-.15-1.26-.33-.64-.2-1.1-.37-1.38-.51-.26-.16-.63-.38-1.11-.66-.46-.3-.8-.6-1.02-.9-.2-.32-.39-.71-.57-1.17-.18-.48-.27-.99-.27-1.53 0-1.32.59-2.45 1.77-3.39 1.18-.94 2.84-1.41 4.98-1.41 2.68 0 4.8.88 6.36 2.64a6.53 6.53 0 011.29 2.61h-4.95c-.12-.32-.26-.57-.42-.75-.46-.5-1.12-.75-1.98-.75-1.2 0-1.8.35-1.8 1.05 0 .34.2.6.6.78.4.18 1.01.35 1.83.51 2.06.48 3.45.9 4.17 1.26 1.8.88 2.7 2.23 2.7 4.05 0 1.44-.64 2.65-1.92 3.63-1.26.98-3.07 1.47-5.43 1.47-2.9 0-5.11-.92-6.63-2.76a6.113 6.113 0 01-1.32-2.79zm16.641 0h5.1c.08.3.25.58.51.84.54.54 1.32.81 2.34.81 1.4 0 2.1-.35 2.1-1.05 0-.32-.2-.57-.6-.75-.4-.2-1-.4-1.8-.6-.66-.16-1.09-.26-1.29-.3-.2-.04-.62-.15-1.26-.33-.64-.2-1.1-.37-1.38-.51-.26-.16-.63-.38-1.11-.66-.46-.3-.8-.6-1.02-.9-.2-.32-.39-.71-.57-1.17-.18-.48-.27-.99-.27-1.53 0-1.32.59-2.45 1.77-3.39 1.18-.94 2.84-1.41 4.98-1.41 2.68 0 4.8.88 6.36 2.64a6.53 6.53 0 011.29 2.61h-4.95c-.12-.32-.26-.57-.42-.75-.46-.5-1.12-.75-1.98-.75-1.2 0-1.8.35-1.8 1.05 0 .34.2.6.6.78.4.18 1.01.35 1.83.51 2.06.48 3.45.9 4.17 1.26 1.8.88 2.7 2.23 2.7 4.05 0 1.44-.64 2.65-1.92 3.63-1.26.98-3.07 1.47-5.43 1.47-2.9 0-5.11-.92-6.63-2.76a6.113 6.113 0 01-1.32-2.79z"/><path fill-rule="evenodd" clip-rule="evenodd" d="M6 6v18h18L6 6zM0 0v30h30V0H0z"/></svg><svg viewBox="0 0 112 18" id="logo_mobile" xmlns="http://www.w3.org/2000/svg"><path d="M25.212 14.658V2.345h3.254V6.92h4.75V2.345h3.253v12.313h-3.254v-4.75h-4.749v4.75h-3.254zM38.396 3.049c0-.422.158-.774.475-1.055.316-.294.715-.44 1.196-.44.48 0 .88.146 1.196.44.317.28.475.633.475 1.055 0 .41-.158.762-.475 1.055-.317.293-.715.44-1.196.44-.48 0-.88-.147-1.196-.44a1.388 1.388 0 01-.475-1.055zm.176 11.609V5.511h2.99v9.147h-2.99zm5.668-1.39c-.785-.867-1.178-1.987-1.178-3.36 0-1.371.393-2.491 1.178-3.359.786-.868 1.742-1.301 2.867-1.301.81 0 1.507.234 2.094.703.27.211.48.446.633.704h.176V5.51H53V18h-8.707v-2.375h5.717v-2.374h-.176c-.164.258-.375.48-.633.668-.575.434-1.273.651-2.093.651-1.126 0-2.082-.434-2.868-1.302zm2.428-4.907c-.352.375-.528.891-.528 1.548 0 .656.176 1.172.528 1.548.352.375.82.563 1.407.563.586 0 1.055-.188 1.407-.563.352-.376.528-.892.528-1.548 0-.657-.176-1.173-.528-1.548-.352-.375-.82-.563-1.407-.563-.586 0-1.055.188-1.407.563zm8.082 6.297V2.345h2.99v4.398h.177a2.72 2.72 0 01.633-.74 3.148 3.148 0 012.093-.755c1.08 0 1.917.328 2.515.985.61.645.915 1.577.915 2.796v5.629h-2.99V9.469c0-.528-.14-.938-.422-1.231-.282-.293-.669-.44-1.161-.44a1.64 1.64 0 00-1.267.563c-.328.363-.492.85-.492 1.46v4.837h-2.99zM70.674 18V5.511h2.99v1.232h.176c.164-.27.387-.516.669-.74.645-.503 1.33-.755 2.058-.755 1.125 0 2.081.445 2.867 1.336.785.88 1.178 2.047 1.178 3.5 0 1.455-.393 2.627-1.178 3.519-.786.88-1.742 1.319-2.867 1.319-.74 0-1.425-.246-2.058-.739a2.703 2.703 0 01-.669-.756h-.176V18h-2.99zm3.518-9.604c-.352.399-.528.962-.528 1.689 0 .727.176 1.29.528 1.688.352.399.82.598 1.407.598.587 0 1.056-.199 1.407-.598.352-.398.528-.961.528-1.688s-.176-1.29-.528-1.689c-.351-.399-.82-.598-1.407-.598-.586 0-1.055.2-1.407.598zm8.646 5.207c-.786-.892-1.179-2.064-1.179-3.518 0-1.454.393-2.621 1.179-3.5.786-.892 1.741-1.337 2.867-1.337.727 0 1.413.252 2.058.756.27.223.492.469.668.739h.176V5.51h2.99v9.147h-2.99v-1.231h-.176a2.703 2.703 0 01-.668.756c-.633.493-1.32.739-2.058.739-1.126 0-2.081-.44-2.867-1.32zm2.427-5.207c-.352.399-.528.962-.528 1.689 0 .727.176 1.29.528 1.688.352.399.821.598 1.407.598.587 0 1.056-.199 1.407-.598.352-.398.528-.961.528-1.688s-.176-1.29-.528-1.689c-.351-.399-.82-.598-1.407-.598-.586 0-1.055.2-1.407.598zm7.555 3.272h2.99a1.1 1.1 0 00.3.492c.316.317.774.475 1.372.475.82 0 1.231-.205 1.231-.615 0-.188-.117-.335-.352-.44-.234-.117-.586-.235-1.055-.352a25.35 25.35 0 00-.757-.176 12.808 12.808 0 01-.738-.193 5.97 5.97 0 01-.81-.3 38.679 38.679 0 00-.65-.386c-.27-.176-.47-.352-.598-.528a4.175 4.175 0 01-.335-.686 2.534 2.534 0 01-.158-.897c0-.774.346-1.437 1.038-1.988.692-.55 1.665-.826 2.92-.826 1.571 0 2.814.516 3.729 1.547.363.446.615.956.756 1.53h-2.902a1.397 1.397 0 00-.246-.439c-.27-.293-.657-.44-1.161-.44-.704 0-1.056.205-1.056.616 0 .2.118.352.352.457.235.106.592.205 1.073.3 1.208.28 2.023.527 2.445.738 1.055.516 1.583 1.307 1.583 2.375 0 .844-.375 1.553-1.126 2.128-.738.575-1.8.862-3.183.862-1.7 0-2.996-.54-3.888-1.618a3.584 3.584 0 01-.773-1.636zm9.757 0h2.99c.047.176.147.34.299.492.317.317.774.475 1.372.475.821 0 1.232-.205 1.232-.615 0-.188-.118-.335-.352-.44-.235-.117-.586-.235-1.055-.352-.387-.094-.64-.152-.757-.176a13.048 13.048 0 01-.739-.193 5.978 5.978 0 01-.809-.3 31.263 31.263 0 00-.651-.386c-.269-.176-.469-.352-.598-.528a4.224 4.224 0 01-.334-.686 2.545 2.545 0 01-.158-.897c0-.774.346-1.437 1.038-1.988.692-.55 1.665-.826 2.92-.826 1.571 0 2.814.516 3.729 1.547.363.446.615.956.756 1.53h-2.902a1.408 1.408 0 00-.247-.439c-.269-.293-.656-.44-1.161-.44-.703 0-1.055.205-1.055.616 0 .2.117.352.352.457.234.106.592.205 1.073.3 1.208.28 2.023.527 2.445.738 1.055.516 1.583 1.307 1.583 2.375 0 .844-.375 1.553-1.126 2.128-.739.575-1.8.862-3.184.862-1.7 0-2.996-.54-3.887-1.618a3.579 3.579 0 01-.774-1.636z"/><path fill-rule="evenodd" clip-rule="evenodd" d="M3.518 3.518v10.554h10.554L3.518 3.518zM0 0v17.59h17.59V0H0z"/></svg><svg viewBox="0 0 166 28" id="logo_small-tablet" xmlns="http://www.w3.org/2000/svg"><path d="M37.519 22.727V4.404h4.843v6.805h7.067V4.404h4.843v18.323h-4.843v-7.068h-7.067v7.068h-4.843zM57.139 5.45c0-.628.235-1.151.706-1.57.472-.436 1.065-.654 1.78-.654.716 0 1.31.218 1.78.654.472.419.707.942.707 1.57 0 .611-.235 1.135-.707 1.571-.47.436-1.064.655-1.78.655-.715 0-1.308-.219-1.78-.655-.47-.436-.706-.96-.706-1.57zm.261 17.277V9.115h4.45v13.612H57.4zm8.436-2.068c-1.169-1.292-1.754-2.958-1.754-5s.585-3.708 1.754-5c1.17-1.29 2.592-1.936 4.267-1.936 1.204 0 2.242.349 3.115 1.047.401.314.715.663.942 1.047h.262V9.115h4.45V27.7H65.915v-3.534h8.507v-3.533h-.262a3.642 3.642 0 01-.942.994c-.855.646-1.893.969-3.115.969-1.675 0-3.097-.646-4.267-1.937zm3.613-7.303c-.524.558-.786 1.326-.786 2.303 0 .977.262 1.745.786 2.304.523.558 1.221.837 2.094.837.872 0 1.57-.279 2.094-.837.523-.559.785-1.327.785-2.304 0-.977-.262-1.745-.785-2.303-.524-.559-1.222-.838-2.094-.838-.873 0-1.57.28-2.094.838zm12.028 9.371V4.404h4.45v6.543h.262c.244-.418.558-.785.942-1.099.89-.75 1.929-1.125 3.115-1.125 1.606 0 2.853.488 3.743 1.465.908.96 1.362 2.348 1.362 4.162v8.377H90.9v-7.722c0-.786-.21-1.396-.629-1.833-.418-.436-.994-.654-1.727-.654-.75 0-1.379.28-1.885.838-.489.54-.733 1.265-.733 2.172v7.199h-4.45zm23.697 4.973V9.115h4.45v1.832h.261c.245-.4.576-.767.995-1.099.96-.75 1.981-1.125 3.063-1.125 1.675 0 3.097.663 4.266 1.989 1.17 1.309 1.754 3.045 1.754 5.209 0 2.164-.584 3.909-1.754 5.235-1.169 1.309-2.591 1.963-4.266 1.963-1.1 0-2.121-.366-3.063-1.1a4.03 4.03 0 01-.995-1.125h-.261V27.7h-4.45zm5.235-14.292c-.524.593-.785 1.431-.785 2.513 0 1.082.261 1.92.785 2.513.523.593 1.221.89 2.094.89.873 0 1.571-.297 2.094-.89.524-.594.785-1.431.785-2.513 0-1.082-.261-1.92-.785-2.513-.523-.593-1.221-.89-2.094-.89-.873 0-1.571.297-2.094.89zm12.866 7.748c-1.169-1.326-1.754-3.071-1.754-5.235s.585-3.9 1.754-5.21c1.169-1.325 2.592-1.988 4.267-1.988 1.082 0 2.103.375 3.062 1.125.402.332.733.698.995 1.1h.262V9.114h4.45v13.612h-4.45v-1.833h-.262a4.015 4.015 0 01-.995 1.126c-.942.733-1.963 1.1-3.062 1.1-1.675 0-3.098-.655-4.267-1.964zm3.613-7.748c-.524.593-.786 1.431-.786 2.513 0 1.082.262 1.92.786 2.513.523.593 1.221.89 2.094.89.872 0 1.57-.297 2.094-.89.523-.594.785-1.431.785-2.513 0-1.082-.262-1.92-.785-2.513-.524-.593-1.222-.89-2.094-.89-.873 0-1.571.297-2.094.89zm11.243 4.869h4.45c.07.261.218.506.445.733.471.47 1.152.706 2.042.706 1.221 0 1.832-.305 1.832-.916 0-.279-.175-.497-.524-.654-.349-.175-.872-.35-1.57-.524a37.01 37.01 0 00-1.126-.261 19.349 19.349 0 01-1.099-.288c-.559-.175-.96-.323-1.204-.445a47.62 47.62 0 00-.969-.576c-.401-.262-.698-.524-.89-.785-.174-.28-.34-.62-.497-1.021a3.772 3.772 0 01-.236-1.335c0-1.152.515-2.138 1.545-2.958 1.029-.82 2.478-1.23 4.345-1.23 2.338 0 4.188.767 5.549 2.303a5.707 5.707 0 011.126 2.277h-4.319a2.08 2.08 0 00-.367-.654c-.401-.436-.977-.654-1.727-.654-1.047 0-1.571.305-1.571.916 0 .296.175.523.524.68.349.157.881.306 1.596.445 1.798.42 3.011.786 3.639 1.1 1.57.768 2.356 1.945 2.356 3.533 0 1.257-.559 2.313-1.676 3.168-1.099.855-2.678 1.282-4.737 1.282-2.531 0-4.459-.802-5.785-2.408a5.322 5.322 0 01-1.152-2.434zm14.519 0h4.45c.07.261.218.506.445.733.471.47 1.152.706 2.042.706 1.222 0 1.832-.305 1.832-.916 0-.279-.174-.497-.523-.654-.349-.175-.873-.35-1.571-.524-.576-.14-.951-.227-1.125-.261a19.3 19.3 0 01-1.1-.288c-.558-.175-.959-.323-1.204-.445-.227-.14-.549-.332-.968-.576-.402-.262-.698-.524-.89-.785a6.154 6.154 0 01-.498-1.021 3.771 3.771 0 01-.235-1.335c0-1.152.515-2.138 1.544-2.958 1.03-.82 2.478-1.23 4.345-1.23 2.339 0 4.189.767 5.55 2.303a5.692 5.692 0 011.125 2.277h-4.319a2.08 2.08 0 00-.366-.654c-.402-.436-.977-.654-1.728-.654-1.047 0-1.57.305-1.57.916 0 .296.174.523.523.68.349.157.881.306 1.597.445 1.797.42 3.01.786 3.638 1.1 1.571.768 2.356 1.945 2.356 3.533 0 1.257-.558 2.313-1.675 3.168-1.1.855-2.679 1.282-4.738 1.282-2.53 0-4.459-.802-5.785-2.408a5.342 5.342 0 01-1.152-2.434z"/><path fill-rule="evenodd" clip-rule="evenodd" d="M5.235 6.149v15.705h15.706L5.235 6.15zM0 .914V27.09h26.176V.914H0z"/></svg><svg viewBox="0 0 166 27" id="logo_tablet" xmlns="http://www.w3.org/2000/svg"><path d="M37.519 21.813V3.49h4.842v6.806h7.068V3.49h4.842v18.323H49.43v-7.067h-7.07v7.067h-4.84zm19.62-17.276c0-.628.235-1.152.706-1.57.471-.437 1.065-.655 1.78-.655.716 0 1.309.218 1.78.655.471.418.707.942.707 1.57 0 .61-.236 1.134-.707 1.57-.471.437-1.064.655-1.78.655-.715 0-1.309-.218-1.78-.654-.47-.437-.706-.96-.706-1.57zm.261 17.276V8.202h4.45v13.611H57.4zm8.436-2.068c-1.17-1.291-1.754-2.957-1.754-5 0-2.04.585-3.707 1.754-4.999 1.17-1.291 2.591-1.937 4.267-1.937 1.204 0 2.242.35 3.115 1.047.401.314.715.663.942 1.047h.262V8.202h4.45v18.585H65.915v-3.534h8.507v-3.534h-.262a3.644 3.644 0 01-.942.995c-.855.646-1.894.968-3.115.968-1.675 0-3.098-.645-4.267-1.937zm3.612-7.303c-.523.559-.785 1.326-.785 2.304 0 .977.262 1.745.785 2.303.524.559 1.222.838 2.095.838.872 0 1.57-.28 2.093-.838.524-.558.786-1.326.786-2.303 0-.978-.262-1.745-.785-2.304-.524-.558-1.222-.837-2.094-.837-.873 0-1.571.279-2.095.837zm12.029 9.371V3.49h4.45v6.544h.262a4.05 4.05 0 01.942-1.1c.89-.75 1.928-1.125 3.115-1.125 1.606 0 2.853.489 3.743 1.466.908.96 1.361 2.347 1.361 4.162v8.376H90.9v-7.722c0-.785-.209-1.396-.628-1.832-.419-.436-.995-.654-1.727-.654-.75 0-1.379.279-1.885.837-.489.541-.733 1.265-.733 2.173v7.198h-4.45zm23.696 4.974V8.202h4.45v1.832h.262c.244-.401.576-.768.995-1.1.96-.75 1.98-1.125 3.062-1.125 1.676 0 3.098.663 4.267 1.99 1.169 1.308 1.754 3.045 1.754 5.209 0 2.163-.585 3.909-1.754 5.235-1.169 1.309-2.591 1.963-4.267 1.963-1.099 0-2.12-.366-3.062-1.1a4.015 4.015 0 01-.995-1.125h-.262v6.806h-4.45zm5.236-14.292c-.524.593-.786 1.43-.786 2.513 0 1.082.262 1.92.786 2.512.523.594 1.221.89 2.094.89.872 0 1.57-.296 2.094-.89.523-.593.785-1.43.785-2.512s-.262-1.92-.785-2.513c-.524-.594-1.222-.89-2.094-.89-.873 0-1.571.296-2.094.89zm12.866 7.748c-1.169-1.326-1.754-3.072-1.754-5.235 0-2.164.585-3.9 1.754-5.21 1.169-1.326 2.591-1.989 4.267-1.989 1.082 0 2.102.375 3.062 1.126.402.331.733.698.995 1.1h.262V8.201h4.45v13.611h-4.45V19.98h-.262a4.015 4.015 0 01-.995 1.125c-.942.733-1.963 1.1-3.062 1.1-1.676 0-3.098-.654-4.267-1.963zm3.612-7.748c-.523.593-.785 1.43-.785 2.513 0 1.082.262 1.92.785 2.512.524.594 1.222.89 2.094.89.873 0 1.571-.296 2.094-.89.524-.593.786-1.43.786-2.512s-.262-1.92-.786-2.513c-.523-.594-1.221-.89-2.094-.89-.872 0-1.57.296-2.094.89zm11.244 4.868h4.45c.069.262.218.506.445.733.471.471 1.151.707 2.041.707 1.222 0 1.833-.305 1.833-.916 0-.28-.175-.497-.524-.654-.349-.175-.872-.35-1.57-.524-.576-.14-.952-.227-1.126-.262-.175-.035-.541-.13-1.099-.288-.559-.174-.96-.322-1.205-.445-.226-.14-.549-.331-.968-.576-.401-.261-.698-.523-.89-.785-.175-.28-.34-.62-.497-1.02a3.772 3.772 0 01-.236-1.336c0-1.151.515-2.137 1.544-2.958 1.03-.82 2.478-1.23 4.346-1.23 2.338 0 4.188.768 5.549 2.304a5.707 5.707 0 011.126 2.277h-4.319a2.08 2.08 0 00-.367-.655c-.401-.436-.977-.654-1.728-.654-1.047 0-1.57.306-1.57.916 0 .297.174.524.523.68.349.158.882.306 1.597.446 1.798.419 3.01.785 3.639 1.1 1.57.767 2.355 1.945 2.355 3.533 0 1.256-.558 2.312-1.675 3.167-1.099.855-2.679 1.283-4.738 1.283-2.53 0-4.458-.803-5.785-2.408a5.331 5.331 0 01-1.151-2.435zm14.519 0h4.45c.07.262.218.506.445.733.471.471 1.152.707 2.042.707 1.221 0 1.832-.305 1.832-.916 0-.28-.174-.497-.523-.654-.349-.175-.873-.35-1.571-.524a37.01 37.01 0 00-1.126-.262c-.174-.035-.541-.13-1.099-.288-.558-.174-.96-.322-1.204-.445a52.83 52.83 0 00-.969-.576c-.401-.261-.698-.523-.89-.785a6.31 6.31 0 01-.497-1.02 3.771 3.771 0 01-.235-1.336c0-1.151.514-2.137 1.544-2.958 1.03-.82 2.478-1.23 4.345-1.23 2.339 0 4.188.768 5.549 2.304a5.694 5.694 0 011.126 2.277h-4.319a2.1 2.1 0 00-.366-.655c-.402-.436-.978-.654-1.728-.654-1.047 0-1.571.306-1.571.916 0 .297.175.524.524.68.349.158.881.306 1.597.446 1.797.419 3.01.785 3.638 1.1 1.571.767 2.356 1.945 2.356 3.533 0 1.256-.559 2.312-1.675 3.167-1.1.855-2.679 1.283-4.738 1.283-2.531 0-4.459-.803-5.785-2.408a5.343 5.343 0 01-1.152-2.435z"/><path fill-rule="evenodd" clip-rule="evenodd" d="M5.235 5.235v15.706h15.706L5.235 5.235zM0 0v26.176h26.176V0H0z"/></svg><svg viewBox="0 0 12 12" id="map-point" xmlns="http://www.w3.org/2000/svg"><circle cx="6" cy="6" r="6"/></svg><svg viewBox="0 0 30 30" id="odnoklassniki" xmlns="http://www.w3.org/2000/svg"><g clip-path="url(#ja)"><path d="M12.853 9.99a2.24 2.24 0 104.478 0 2.24 2.24 0 00-4.478 0z"/><path fill-rule="evenodd" clip-rule="evenodd" d="M15 30c8.284 0 15-6.716 15-15 0-8.284-6.716-15-15-15C6.716 0 0 6.716 0 15c0 8.284 6.716 15 15 15zM9.675 9.99a5.417 5.417 0 1110.834 0 5.417 5.417 0 01-10.834 0zm10.866 8.204c-.069.055-1.368 1.082-3.537 1.524l3.274 3.244a1.473 1.473 0 11-2.082 2.085l-3.178-3.095-2.886 3.075c-.29.3-.675.45-1.06.45a1.473 1.473 0 01-1.06-2.495l3.107-3.247c-2.23-.431-3.583-1.485-3.653-1.541a1.473 1.473 0 011.843-2.298c.014.01 1.429 1.074 3.71 1.075 2.28-.001 3.666-1.064 3.68-1.075a1.473 1.473 0 011.842 2.298z"/></g><defs><clipPath id="ja"><path transform="matrix(-1 0 0 1 30 0)" d="M0 0h30v30H0z"/></clipPath></defs></svg><svg viewBox="0 0 25 25" id="search" xmlns="http://www.w3.org/2000/svg"><path d="M24.911 22.814l-5.057-4.457c1.487-1.98 2.292-4.403 2.292-6.95 0-3.05-1.156-5.909-3.245-8.065C16.812 1.186 14.03 0 11.073 0s-5.74 1.19-7.829 3.342C1.152 5.494 0 8.357 0 11.407c0 3.045 1.155 5.912 3.244 8.064 2.09 2.156 4.869 3.343 7.829 3.343 2.473 0 4.82-.83 6.743-2.358l5.058 4.453a.3.3 0 00.214.091.294.294 0 00.214-.091l1.61-1.654a.312.312 0 00.088-.22.319.319 0 00-.089-.221zM16.92 17.43c-1.565 1.608-3.639 2.494-5.846 2.494-2.207 0-4.282-.886-5.847-2.494a8.603 8.603 0 01-2.42-6.023c0-2.274.86-4.415 2.42-6.023 1.565-1.608 3.64-2.494 5.847-2.494 2.207 0 4.285.882 5.846 2.494a8.602 8.602 0 012.422 6.023c0 2.274-.86 4.414-2.422 6.023z"/></svg><svg viewBox="0 0 18 18" id="telephone" xmlns="http://www.w3.org/2000/svg"><path d="M16.343 12.098a10.49 10.49 0 01-3.236-.513.896.896 0 00-.926.22l-1.44 1.806c-2.593-1.238-5.023-3.575-6.315-6.261l1.787-1.522a.935.935 0 00.22-.935 10.223 10.223 0 01-.513-3.236.916.916 0 00-.907-.907H1.84C1.346.75.75.97.75 1.657c0 8.516 7.086 15.593 15.593 15.593.65 0 .907-.578.907-1.082v-3.162a.916.916 0 00-.907-.908z"/></svg><svg viewBox="0 0 30 30" id="vk" xmlns="http://www.w3.org/2000/svg"><path d="M15 0C6.716 0 0 6.716 0 15c0 8.284 6.716 15 15 15 8.284 0 15-6.716 15-15 0-8.284-6.716-15-15-15zm7.609 16.622c.699.683 1.439 1.326 2.066 2.08.278.333.54.677.74 1.065.285.553.027 1.159-.467 1.192l-3.073-.001c-.794.066-1.426-.255-1.958-.797-.425-.433-.82-.894-1.229-1.342a2.871 2.871 0 00-.553-.492c-.42-.272-.783-.189-1.023.249-.245.445-.3.939-.324 1.434-.033.725-.252.914-.979.948-1.553.073-3.028-.163-4.398-.946-1.208-.69-2.144-1.666-2.959-2.77-1.587-2.152-2.803-4.514-3.895-6.944-.246-.547-.066-.84.538-.85a85.522 85.522 0 013.009-.002c.408.007.678.24.835.625.542 1.334 1.206 2.603 2.039 3.78.222.313.448.625.77.846.357.245.628.164.796-.233.107-.253.154-.523.177-.794.08-.927.09-1.854-.049-2.777-.086-.578-.41-.951-.987-1.06-.293-.056-.25-.165-.108-.332.248-.29.48-.47.944-.47h3.472c.547.107.67.353.744.904l.003 3.859c-.006.213.107.845.49.985.307.101.51-.145.693-.34.833-.883 1.426-1.926 1.957-3.005.235-.476.437-.969.634-1.462.146-.365.373-.545.785-.539l3.343.004c.099 0 .199.001.296.018.564.097.718.339.544.889-.275.863-.808 1.583-1.329 2.304-.558.772-1.154 1.517-1.707 2.293-.508.709-.468 1.066.163 1.681z"/></svg></svg>